<svg xmlns="http://www.w3.org/2000/svg" xmlns:svg="http://www.w3.org/2000/svg" id="svg4551" width="32" height="32" x="0" y="0" enable-background="new 0 0 595.275 311.111" version="1.1" viewBox="0 0 32 32" xml:space="preserve"><metadata id="metadata4557"/><rect id="rect4547" width="32" height="32" x="0" y="0" fill="#0082c9" rx="5" ry="5"/><path style="fill:#fff;stroke-width:.92142856" id="path4725" d="m 3.7714273,3.1652662 c -0.5104715,0 -0.9214286,0.4109573 -0.9214286,0.9214286 v 1.842857 c 0,0.5104714 0.4109571,0.9214286 0.9214286,0.9214286 H 27.72857 c 0.510471,0 0.921428,-0.4109572 0.921428,-0.9214286 v -1.842857 c 0,-0.5104713 -0.410957,-0.9214286 -0.921428,-0.9214286 z m 0,7.3714278 c -0.5104715,0 -0.9214286,0.410958 -0.9214286,0.921429 v 1.842857 c 0,0.510472 0.4109571,0.921429 0.9214286,0.921429 H 20.357141 c 0.510471,0 0.921429,-0.410957 0.921429,-0.921429 v -1.842857 c 0,-0.510471 -0.410958,-0.921429 -0.921429,-0.921429 z m 0,7.371429 c -0.5104715,0 -0.9214286,0.410957 -0.9214286,0.921428 v 1.842858 c 0,0.510471 0.4109571,0.921429 0.9214286,0.921429 H 25.885712 c 0.510472,0 0.921429,-0.410958 0.921429,-0.921429 v -1.842858 c 0,-0.510471 -0.410957,-0.921428 -0.921429,-0.921428 z m 0,7.371429 c -0.5104715,0 -0.9214286,0.410958 -0.9214286,0.921429 v 1.842857 c 0,0.510472 0.4109571,0.921429 0.9214286,0.921429 H 14.82857 c 0.510472,0 0.921429,-0.410957 0.921429,-0.921429 v -1.842857 c 0,-0.510471 -0.410957,-0.921429 -0.921429,-0.921429 z"/></svg>