<svg xmlns="http://www.w3.org/2000/svg" xmlns:svg="http://www.w3.org/2000/svg" id="svg4551" width="128" height="128" x="0" y="0" enable-background="new 0 0 595.275 311.111" version="1.1" viewBox="0 0 128 128" xml:space="preserve"><metadata id="metadata4557"/><rect style="fill:#0082c9;stroke-width:4" id="rect4547" width="128" height="128" x="0" y="0" rx="20" ry="20"/><path style="fill:#fff;stroke-width:3.68571424" id="path4725" d="m 15.085709,12.661086 c -2.041886,0 -3.685714,1.643827 -3.685714,3.685695 v 7.371441 c 0,2.041881 1.643828,3.68572 3.685714,3.68572 h 95.828571 c 2.04189,0 3.68571,-1.643839 3.68571,-3.68572 v -7.371441 c 0,-2.041868 -1.64382,-3.685695 -3.68571,-3.685695 z m 0,29.485696 c -2.041886,0 -3.685714,1.643841 -3.685714,3.68572 v 7.371441 c 0,2.04188 1.643828,3.685719 3.685714,3.685719 h 66.342856 c 2.041884,0 3.685715,-1.643839 3.685715,-3.685719 v -7.371441 c 0,-2.041879 -1.643831,-3.68572 -3.685715,-3.68572 z m 0,29.48572 c -2.041886,0 -3.685714,1.64384 -3.685714,3.68572 v 7.371441 c 0,2.041879 1.643828,3.68572 3.685714,3.68572 h 88.457141 c 2.04189,0 3.68572,-1.643841 3.68572,-3.68572 v -7.371441 c 0,-2.04188 -1.64383,-3.68572 -3.68572,-3.68572 z m 0,29.485728 c -2.041886,0 -3.685714,1.64384 -3.685714,3.68571 v 7.37145 c 0,2.04188 1.643828,3.68571 3.685714,3.68571 H 59.31428 c 2.041888,0 3.685717,-1.64383 3.685717,-3.68571 v -7.37145 c 0,-2.04187 -1.643829,-3.68571 -3.685717,-3.68571 z"/></svg>